<svg xmlns="http://www.w3.org/2000/svg" width="1024" height="1024" viewBox="0 0 1024 1024" version="1.1"><path d="M 272.435 182.378 C 259.455 188.422, 252.169 200.042, 245.932 224.645 C 241.487 242.179, 239.693 260.142, 239.754 286.500 C 239.809 310.838, 240.818 323.963, 244.133 343.500 C 247.929 365.867, 247.986 365.072, 241.688 377.553 C 226.160 408.328, 218.030 441.616, 218.009 474.500 L 218.001 486.500 199.522 486.500 L 181.043 486.500 177.772 489.769 C 174.814 492.724, 174.500 493.606, 174.500 498.946 C 174.500 503.345, 175.029 505.574, 176.571 507.677 C 180.228 512.662, 183.786 513.720, 199.282 514.430 C 207.102 514.789, 215.121 515.317, 217.101 515.604 L 220.703 516.126 222.969 527.313 C 224.216 533.466, 227.184 544.336, 229.565 551.470 C 231.946 558.603, 233.783 564.551, 233.647 564.686 C 233.512 564.821, 227.459 566.514, 220.197 568.448 C 203.836 572.803, 199.808 574.777, 197.545 579.547 C 195.357 584.158, 196.081 588.431, 199.958 593.783 C 203.754 599.023, 208.341 600.647, 214.821 599.044 C 219.141 597.975, 243.032 590.490, 245.642 589.388 C 246.270 589.123, 248.966 592.189, 251.633 596.203 C 277.148 634.593, 314.600 662.953, 364 681.291 C 390.923 691.286, 398.942 690.943, 404.104 679.579 C 408.602 669.675, 404.644 661.340, 394.046 658.397 C 369.632 651.617, 346.491 641.504, 329.500 630.189 C 311.916 618.479, 293.609 601.567, 282.453 586.726 C 279.904 583.335, 278.197 580.455, 278.659 580.326 C 279.122 580.197, 286.448 578.491, 294.941 576.535 C 311.579 572.704, 314.052 571.603, 317.044 566.696 C 320.897 560.376, 318.480 551.851, 311.865 548.430 C 307.728 546.291, 304.209 546.718, 282.164 552.042 C 272.556 554.362, 264.468 555.843, 264.020 555.364 C 261.958 553.162, 251.112 516.352, 252.261 515.458 C 252.393 515.356, 259.475 516.112, 268 517.137 C 276.525 518.163, 288.310 519.289, 294.188 519.640 L 304.876 520.277 307.865 517.289 C 313.366 511.788, 312.975 501.255, 307.115 497.082 C 304.305 495.081, 294.834 493.586, 260.500 489.724 L 249.500 488.486 249.776 476.493 C 250.628 439.458, 258.812 409.567, 277.430 375.500 C 280.586 369.725, 280.551 366.664, 277.145 351 C 273.611 334.748, 271.843 317.382, 271.291 293.500 C 270.596 263.393, 272.835 239.029, 277.676 224.040 C 279.449 218.552, 284.808 212, 287.524 212 C 290.027 212, 307.299 221.452, 318.645 229.031 C 340.715 243.772, 357.273 257.373, 379 278.608 C 395.446 294.680, 399.772 298, 404.275 298 C 405.581 298, 411.255 296.400, 416.883 294.444 C 431.181 289.476, 451.998 284.373, 468.500 281.791 C 480.406 279.928, 486.614 279.601, 510 279.604 C 548.087 279.610, 566.631 282.373, 600.721 293.120 C 613.654 297.197, 617.695 298.092, 620.655 297.537 C 623.713 296.963, 627.292 293.981, 640.934 280.639 C 666.757 255.385, 680.211 244.178, 702.837 229.077 C 715.955 220.323, 731.450 212, 734.632 212 C 741.610 212, 746.648 224.638, 750.178 251 C 751.782 262.976, 751.734 307.854, 750.103 321.500 C 748.615 333.952, 745.508 352.327, 743.372 361.318 L 741.751 368.135 748.288 380.818 C 764.241 411.770, 771.474 438.839, 772.713 472.224 C 773.195 485.194, 773.052 488.023, 771.898 488.373 C 771.129 488.607, 759.700 489.999, 746.500 491.467 C 718.870 494.540, 716.198 495.096, 713.069 498.426 C 708.446 503.347, 709.351 513.771, 714.770 518.034 C 718.060 520.622, 723.929 520.549, 749.500 517.601 C 760.500 516.333, 769.684 515.450, 769.908 515.639 C 771.259 516.776, 762.425 548.585, 758.956 555.080 C 758.212 556.473, 755.881 556.085, 739.306 551.810 C 716.673 545.974, 711.348 545.808, 706.886 550.802 C 701.416 556.923, 702.332 566.286, 708.829 570.664 C 710.745 571.955, 718.453 574.369, 727.544 576.526 C 736.046 578.543, 743.226 580.556, 743.500 580.999 C 744.306 582.304, 735.249 593.754, 725.080 604.284 C 701.665 628.531, 671.004 646.451, 634.945 656.961 C 629.690 658.493, 623.917 660.509, 622.117 661.440 C 613.460 665.916, 614.487 680.368, 623.913 686.720 C 628.766 689.991, 633.767 689.632, 648.351 684.970 C 687.603 672.421, 721.952 652.067, 747.641 626.132 C 756.011 617.683, 767.566 603.217, 773.514 593.744 C 775.606 590.412, 776.949 589.180, 778 589.631 C 778.825 589.986, 785.350 592.271, 792.500 594.709 C 811.833 601.303, 818.263 600.817, 823.199 592.390 C 826.252 587.179, 826.472 581.961, 823.806 578.024 C 821.012 573.896, 817.169 572.240, 800.392 567.929 L 788.284 564.819 791.264 557.159 C 796.018 544.940, 799.003 534.405, 802.528 517.398 C 802.942 515.403, 803.783 515.262, 819.232 514.600 C 837.510 513.817, 841.722 513.017, 844.695 509.761 C 850.155 503.783, 850.096 495.365, 844.553 489.488 L 841.186 485.918 823.343 486.050 L 805.500 486.182 804.766 471.841 C 802.995 437.239, 795.786 408.301, 781.878 379.965 L 774.778 365.500 775.943 358 C 780.532 328.456, 781.144 321.640, 781.693 294 C 782.297 263.563, 781.414 248.835, 777.973 231.896 C 772.544 205.177, 763.016 188.397, 749.761 182.211 C 743.465 179.273, 733.266 179.215, 724.793 182.070 C 698.941 190.778, 662.566 215.943, 629.852 247.750 C 618.481 258.806, 613.509 263, 611.772 263 C 610.455 263, 602.430 261.029, 593.938 258.620 C 539.877 243.284, 479.207 243.791, 423.351 260.046 C 417.769 261.671, 411.975 263, 410.476 263 C 408.317 263, 404.575 259.909, 392.441 248.101 C 367.372 223.707, 340.656 203.628, 316 190.651 C 295.684 179.958, 282.861 177.523, 272.435 182.378 M 381.220 424.578 C 371.761 429.291, 367.044 437.251, 367.044 448.500 C 367.044 459.749, 371.761 467.709, 381.220 472.422 C 393.606 478.594, 408.339 473.785, 415.770 461.145 C 419.571 454.679, 419.684 443.819, 416.026 436.657 C 409.302 423.491, 394.033 418.193, 381.220 424.578 M 619.500 423.867 C 609.395 428.474, 603.647 437.218, 603.638 448 C 603.625 463.423, 614.708 475.014, 629.446 474.990 C 654.277 474.950, 665.217 444.568, 646.361 428.012 C 644.317 426.218, 641.165 424.131, 639.355 423.375 C 634.645 421.407, 624.336 421.663, 619.500 423.867 M 488 483.881 C 480.070 485.577, 475.995 490.382, 476.026 498 C 476.055 505.350, 479.214 510.631, 489.557 520.621 C 499.795 530.510, 500.160 531.342, 497.784 539.384 C 496.002 545.414, 487.869 553.219, 480.981 555.506 C 466.701 560.250, 453.886 555.451, 447.505 542.969 C 446.231 540.478, 444.134 537.908, 442.844 537.259 C 435.032 533.329, 426.414 537.492, 425.309 545.731 C 424.853 549.132, 425.306 551.076, 427.620 555.649 C 435.441 571.107, 449.995 580.338, 468.681 581.694 C 483.216 582.748, 496.481 578.559, 506.341 569.800 L 511.181 565.500 515.717 569.738 C 531.536 584.520, 559.787 585.971, 579.944 573.036 C 589.810 566.705, 597.970 554.775, 597.990 546.650 C 597.998 543.598, 597.296 542.096, 594.600 539.400 C 591.641 536.441, 590.552 536, 586.206 536 C 580.470 536, 577.436 538.324, 572.852 546.230 C 569.155 552.605, 562.873 556.133, 554.100 556.761 C 537.273 557.965, 523.985 547.665, 524.008 533.434 C 524.016 528.531, 524.068 528.452, 532.406 520.775 C 545.309 508.895, 549.087 498.931, 543.737 490.898 C 539.356 484.320, 536.129 483.538, 512.500 483.324 C 500.950 483.219, 489.925 483.470, 488 483.881" stroke="none" fill="#ebebea" fill-rule="evenodd"/><path d="M 236.500 92.086 C 207.519 95.137, 178.176 105.341, 155.936 120.101 C 142.924 128.737, 122.655 149.139, 113.669 162.645 C 97.348 187.177, 88.497 211.856, 85.028 242.500 C 84.205 249.771, 83.991 323.457, 84.244 512.500 C 84.617 791.985, 84.349 776.966, 89.392 800.590 C 94.865 826.231, 108.463 854.279, 124.416 872.832 C 130.312 879.689, 130.374 881.083, 124.489 874.500 C 118.593 867.904, 111.148 857.341, 106.912 849.563 C 105.733 847.397, 104.199 845.057, 103.504 844.361 C 100.853 841.710, 102.609 849.529, 106.189 856.316 C 107.296 858.414, 107.930 860.403, 107.599 860.735 C 107.267 861.066, 107.640 862.049, 108.427 862.919 C 109.214 863.788, 109.824 864.725, 109.782 865 C 109.740 865.275, 110.047 866.572, 110.463 867.882 C 111.047 869.723, 111.417 869.950, 112.094 868.882 C 112.771 867.814, 113 867.954, 113.103 869.500 C 113.177 870.600, 113.171 871.876, 113.090 872.336 C 113.009 872.795, 113.892 874.708, 115.053 876.586 C 116.214 878.464, 116.846 880, 116.459 880 C 116.072 880, 116.256 880.604, 116.869 881.342 C 117.481 882.080, 117.687 882.980, 117.325 883.342 C 116.963 883.704, 117.139 884, 117.717 884 C 118.294 884, 119.014 884.945, 119.316 886.101 C 119.666 887.437, 120.310 887.927, 121.087 887.446 C 121.840 886.981, 122.052 887.107, 121.638 887.776 C 121.269 888.373, 121.432 889.149, 122 889.500 C 122.568 889.851, 122.791 890.529, 122.495 891.008 C 122.200 891.486, 122.755 892.341, 123.729 892.908 C 124.703 893.475, 125.097 893.953, 124.604 893.970 C 124.111 893.986, 124.922 895.125, 126.405 896.500 C 127.889 897.875, 128.755 899, 128.329 899 C 127.903 899, 128.555 899.701, 129.777 900.557 C 131 901.413, 132 902.777, 132 903.588 C 132 904.399, 132.672 905.321, 133.494 905.636 C 134.316 905.952, 134.758 906.582, 134.477 907.038 C 134.195 907.493, 135.313 908.663, 136.962 909.637 C 139.048 910.869, 139.585 911.645, 138.730 912.188 C 137.869 912.735, 138.025 912.974, 139.250 912.985 C 140.361 912.994, 141 913.773, 141 915.117 C 141 916.741, 141.465 917.112, 143.001 916.710 C 144.102 916.422, 144.751 916.595, 144.442 917.093 C 144.134 917.592, 144.359 918, 144.941 918 C 145.523 918, 146 918.642, 146 919.427 C 146 921.057, 150.859 925.205, 151.967 924.521 C 152.369 924.272, 153.292 925.178, 154.018 926.534 C 155.219 928.777, 156.232 929.432, 157.444 928.750 C 157.689 928.612, 159.556 930.075, 161.595 932 C 163.633 933.925, 164.961 934.904, 164.546 934.176 C 163.920 933.080, 164.152 933.078, 165.895 934.167 C 167.053 934.890, 168 935.849, 168 936.300 C 168 936.750, 168.419 936.859, 168.931 936.543 C 169.443 936.226, 170.149 936.432, 170.500 937 C 170.851 937.568, 171.627 937.731, 172.224 937.362 C 172.854 936.972, 173.023 937.154, 172.627 937.795 C 172.251 938.403, 172.857 939.388, 173.972 939.985 C 175.295 940.693, 176 940.718, 176 940.057 C 176 939.406, 176.806 939.364, 178.250 939.940 C 181.700 941.316, 183.975 941.968, 184.467 941.723 C 184.713 941.600, 185.496 942.293, 186.207 943.262 C 186.918 944.231, 188.512 945.243, 189.750 945.512 C 190.988 945.780, 192.871 946.194, 193.935 946.430 C 194.999 946.667, 196.799 947.357, 197.935 947.965 C 199.071 948.573, 200 948.774, 200 948.413 C 200 948.051, 200.641 948.287, 201.425 948.938 C 202.209 949.588, 204.684 950.303, 206.927 950.526 C 209.169 950.749, 211.831 951.374, 212.843 951.916 C 213.854 952.457, 216.572 953.012, 218.883 953.148 C 221.193 953.284, 223.588 954.003, 224.204 954.745 C 225.024 955.734, 225.514 955.787, 226.036 954.942 C 226.553 954.105, 227.422 954.230, 229.204 955.398 C 230.555 956.283, 231.931 956.735, 232.263 956.403 C 232.595 956.071, 233.412 956.137, 234.079 956.549 C 235.318 957.315, 236.578 957.449, 250.500 958.301 C 254.900 958.570, 259.361 959.139, 260.414 959.565 C 261.617 960.052, 262.098 959.967, 261.708 959.337 C 261.367 958.785, 261.743 958.333, 262.544 958.333 C 263.345 958.333, 264 958.610, 264 958.949 C 264 959.548, 268.247 960.265, 270.750 960.088 C 271.438 960.040, 272.563 959.967, 273.250 959.926 C 276.607 959.728, 292.188 960.855, 292.663 961.330 C 292.961 961.628, 294.238 961.480, 295.500 961 C 296.762 960.520, 298.068 960.402, 298.403 960.737 C 299.453 961.787, 312.999 961.567, 313.015 960.500 C 313.026 959.833, 313.276 959.833, 313.765 960.500 C 314.597 961.632, 319.474 961.859, 320.519 960.814 C 321.109 960.224, 324.198 960.953, 326.096 962.130 C 326.424 962.334, 327.324 962.022, 328.096 961.439 C 329.300 960.529, 331.417 960.280, 332.250 960.952 C 333.146 961.674, 336.085 961.672, 336.531 960.949 C 336.834 960.459, 338.177 960.497, 339.593 961.035 C 341.439 961.737, 341.924 961.686, 341.403 960.842 C 340.934 960.084, 341.135 959.965, 341.991 960.494 C 343.900 961.674, 369.009 961.823, 368.284 960.651 C 367.958 960.123, 368.098 959.941, 368.595 960.247 C 370.481 961.405, 377.129 962.018, 376.484 960.975 C 375.841 959.933, 387.756 960.422, 388.814 961.481 C 389.090 961.757, 390.006 961.424, 390.850 960.741 C 392.075 959.750, 392.232 959.753, 391.628 960.758 C 391.026 961.760, 391.408 961.771, 393.510 960.813 C 395.565 959.877, 396.574 959.878, 398.074 960.814 C 399.370 961.623, 400 961.665, 400 960.941 C 400 960.277, 400.862 960.143, 402.250 960.590 C 403.488 960.988, 404.950 961.290, 405.500 961.261 C 407.798 961.138, 419.617 961.036, 421 961.128 C 421.825 961.182, 423.962 960.944, 425.750 960.599 C 427.751 960.213, 429 960.375, 429 961.021 C 429 961.702, 429.614 961.749, 430.750 961.156 C 432.344 960.324, 435.618 960.353, 444.750 961.284 C 446.538 961.466, 448 961.326, 448 960.974 C 448 960.622, 449.330 960.333, 450.956 960.333 C 452.582 960.333, 453.718 960.648, 453.480 961.033 C 453.063 961.707, 456.308 961.527, 461.484 960.589 C 462.850 960.341, 464.157 960.445, 464.389 960.820 C 464.748 961.401, 480.037 961.599, 480.750 961.032 C 481.282 960.609, 487.700 960.691, 488.576 961.132 C 489.084 961.388, 499.175 961.464, 511 961.302 C 536.134 960.956, 538.831 960.966, 541.500 961.410 C 542.600 961.593, 543.950 961.399, 544.500 960.979 C 545.292 960.373, 556.500 960.365, 556.500 960.970 C 556.500 961.482, 572.156 961.177, 572.678 960.655 C 573.029 960.304, 574.006 960.576, 574.850 961.259 C 576.123 962.289, 576.234 962.245, 575.500 961 C 574.740 959.710, 574.851 959.690, 576.295 960.862 C 577.219 961.611, 578.641 961.968, 579.455 961.656 C 580.270 961.343, 581.206 961.525, 581.537 962.060 C 581.868 962.595, 582.537 962.786, 583.025 962.484 C 583.513 962.183, 586.445 961.728, 589.541 961.474 C 592.637 961.221, 595.582 960.758, 596.085 960.447 C 596.588 960.136, 597.007 960.471, 597.015 961.191 C 597.026 962.142, 597.296 962.090, 598 961 C 598.646 960, 598.974 959.917, 598.985 960.750 C 598.993 961.438, 599.477 962, 600.059 962 C 600.641 962, 600.858 961.579, 600.540 961.064 C 600.194 960.505, 601.076 960.425, 602.731 960.866 C 605.200 961.524, 607.543 961.605, 608.250 961.056 C 608.388 960.949, 609.746 960.698, 611.268 960.497 C 613 960.269, 613.796 960.521, 613.395 961.170 C 613.042 961.741, 613.844 961.493, 615.177 960.620 C 617.398 959.164, 617.798 959.170, 619.966 960.689 C 621.267 961.600, 622.025 961.849, 621.649 961.241 C 621.158 960.447, 625.386 960.260, 636.733 960.574 C 666.706 961.405, 728 961.542, 728 960.779 C 728 960.357, 729.013 960.201, 730.250 960.432 C 731.487 960.663, 732.500 960.922, 732.500 961.009 C 732.500 961.096, 733.492 961.277, 734.704 961.413 C 735.916 961.548, 736.681 961.292, 736.404 960.845 C 735.954 960.117, 740.477 960.555, 743.750 961.555 C 744.438 961.765, 745.007 961.389, 745.015 960.719 C 745.025 959.958, 745.307 959.876, 745.765 960.500 C 746.559 961.580, 752 962.111, 752 961.108 C 752 960.293, 757.363 960.489, 758.765 961.355 C 759.377 961.733, 760.341 961.245, 760.908 960.271 C 761.537 959.191, 761.951 959.011, 761.970 959.809 C 761.986 960.529, 762.419 960.859, 762.931 960.543 C 763.443 960.226, 764.187 960.493, 764.584 961.135 C 765.115 961.995, 765.594 961.934, 766.403 960.901 C 767.671 959.281, 772 958.780, 772 960.253 C 772 960.891, 772.446 960.879, 773.250 960.220 C 774.902 958.864, 779.180 958.363, 780.750 959.340 C 781.438 959.768, 782 959.695, 782 959.177 C 782 958.660, 783.688 958.214, 785.750 958.186 C 791.248 958.111, 798.419 957.168, 801.130 956.163 C 802.433 955.680, 805.208 955.429, 807.296 955.604 C 809.838 955.818, 811.267 955.467, 811.622 954.541 C 811.945 953.701, 813.102 953.332, 814.576 953.600 C 815.909 953.841, 817 953.580, 817 953.020 C 817 952.459, 818.350 952, 820 952 C 821.650 952, 823 951.617, 823 951.149 C 823 950.681, 824.237 950.350, 825.750 950.414 C 827.263 950.478, 829.388 949.961, 830.473 949.265 C 831.557 948.569, 833.271 948, 834.282 948 C 835.292 948, 835.859 947.581, 835.543 947.069 C 835.226 946.557, 835.425 945.856, 835.984 945.510 C 836.543 945.165, 837.036 945.696, 837.079 946.691 C 837.125 947.740, 837.370 947.975, 837.662 947.250 C 837.940 946.562, 838.831 946, 839.642 946 C 840.454 946, 840.882 945.618, 840.593 945.151 C 840.305 944.684, 841.482 944.262, 843.210 944.213 C 844.959 944.163, 846.744 943.422, 847.237 942.541 C 847.724 941.670, 848.527 941.208, 849.021 941.513 C 850.056 942.153, 853.477 940.352, 856.449 937.603 C 857.577 936.560, 857.868 936.067, 857.095 936.507 C 856.147 937.049, 855.926 936.929, 856.415 936.138 C 856.813 935.494, 857.577 935.239, 858.114 935.571 C 859.195 936.239, 869.933 928.338, 870.716 926.299 C 870.987 925.591, 871.642 925.279, 872.171 925.606 C 873.375 926.350, 878.910 921.029, 879.043 919 C 879.109 917.981, 879.416 918.142, 880 919.500 C 880.473 920.600, 880.891 920.943, 880.930 920.261 C 881.032 918.460, 884.211 915.012, 885.203 915.626 C 885.669 915.913, 885.967 915.778, 885.866 915.324 C 885.353 913.021, 892.196 904.529, 893.508 905.841 C 893.837 906.170, 893.841 905.749, 893.518 904.906 C 893.183 904.035, 893.808 902.579, 894.965 901.532 C 896.084 900.519, 897 899.193, 897 898.585 C 897 897.977, 898.051 896.346, 899.336 894.960 C 900.621 893.574, 902.003 891.124, 902.407 889.515 C 902.811 887.906, 904.017 885.976, 905.087 885.226 C 906.158 884.477, 906.825 883.526, 906.570 883.114 C 906.316 882.702, 906.959 881.750, 908 881 C 909.041 880.250, 909.623 879.199, 909.294 878.666 C 908.964 878.133, 909.370 877.202, 910.196 876.598 C 911.023 875.994, 911.779 875.167, 911.877 874.760 C 912.161 873.579, 912.947 871.143, 913.653 869.250 C 914.013 868.288, 914.350 866.923, 914.403 866.217 C 914.457 865.511, 914.995 864.611, 915.600 864.217 C 917.204 863.172, 919 859.438, 919 857.149 C 919 856.059, 919.457 855.014, 920.017 854.828 C 920.576 854.641, 921.222 852.997, 921.453 851.174 C 921.683 849.351, 922.290 847.328, 922.800 846.679 C 923.310 846.031, 923.732 844.825, 923.738 844 C 923.744 843.175, 924.094 841.150, 924.515 839.500 C 925.437 835.891, 924.900 836.281, 922.107 841.250 C 920.948 843.312, 919.098 846.593, 917.995 848.539 C 914.599 854.533, 905.287 867.241, 900.435 872.500 C 896.815 876.424, 897.109 875.886, 901.801 870 C 920.632 846.379, 931.324 822.111, 937.270 789.500 L 939.457 777.500 939.784 516.500 C 940.022 327.301, 939.800 252.336, 938.979 244 C 933.272 186.071, 905.944 141.669, 859.576 114.987 C 845.014 106.608, 825.107 98.959, 810 95.938 C 787.451 91.428, 803.802 91.677, 515.500 91.454 C 366.450 91.338, 240.900 91.622, 236.500 92.086 M 272.435 182.378 C 259.455 188.422, 252.169 200.042, 245.932 224.645 C 241.487 242.179, 239.693 260.142, 239.754 286.500 C 239.809 310.838, 240.818 323.963, 244.133 343.500 C 247.929 365.867, 247.986 365.072, 241.688 377.553 C 226.160 408.328, 218.030 441.616, 218.009 474.500 L 218.001 486.500 199.522 486.500 L 181.043 486.500 177.772 489.769 C 174.814 492.724, 174.500 493.606, 174.500 498.946 C 174.500 503.345, 175.029 505.574, 176.571 507.677 C 180.228 512.662, 183.786 513.720, 199.282 514.430 C 207.102 514.789, 215.121 515.317, 217.101 515.604 L 220.703 516.126 222.969 527.313 C 224.216 533.466, 227.184 544.336, 229.565 551.470 C 231.946 558.603, 233.783 564.551, 233.647 564.686 C 233.512 564.821, 227.459 566.514, 220.197 568.448 C 203.836 572.803, 199.808 574.777, 197.545 579.547 C 195.357 584.158, 196.081 588.431, 199.958 593.783 C 203.754 599.023, 208.341 600.647, 214.821 599.044 C 219.141 597.975, 243.032 590.490, 245.642 589.388 C 246.270 589.123, 248.966 592.189, 251.633 596.203 C 277.148 634.593, 314.600 662.953, 364 681.291 C 390.923 691.286, 398.942 690.943, 404.104 679.579 C 408.602 669.675, 404.644 661.340, 394.046 658.397 C 369.632 651.617, 346.491 641.504, 329.500 630.189 C 311.916 618.479, 293.609 601.567, 282.453 586.726 C 279.904 583.335, 278.197 580.455, 278.659 580.326 C 279.122 580.197, 286.448 578.491, 294.941 576.535 C 311.579 572.704, 314.052 571.603, 317.044 566.696 C 320.897 560.376, 318.480 551.851, 311.865 548.430 C 307.728 546.291, 304.209 546.718, 282.164 552.042 C 272.556 554.362, 264.468 555.843, 264.020 555.364 C 261.958 553.162, 251.112 516.352, 252.261 515.458 C 252.393 515.356, 259.475 516.112, 268 517.137 C 276.525 518.163, 288.310 519.289, 294.188 519.640 L 304.876 520.277 307.865 517.289 C 313.366 511.788, 312.975 501.255, 307.115 497.082 C 304.305 495.081, 294.834 493.586, 260.500 489.724 L 249.500 488.486 249.776 476.493 C 250.628 439.458, 258.812 409.567, 277.430 375.500 C 280.586 369.725, 280.551 366.664, 277.145 351 C 273.611 334.748, 271.843 317.382, 271.291 293.500 C 270.596 263.393, 272.835 239.029, 277.676 224.040 C 279.449 218.552, 284.808 212, 287.524 212 C 290.027 212, 307.299 221.452, 318.645 229.031 C 340.715 243.772, 357.273 257.373, 379 278.608 C 395.446 294.680, 399.772 298, 404.275 298 C 405.581 298, 411.255 296.400, 416.883 294.444 C 431.181 289.476, 451.998 284.373, 468.500 281.791 C 480.406 279.928, 486.614 279.601, 510 279.604 C 548.087 279.610, 566.631 282.373, 600.721 293.120 C 613.654 297.197, 617.695 298.092, 620.655 297.537 C 623.713 296.963, 627.292 293.981, 640.934 280.639 C 666.757 255.385, 680.211 244.178, 702.837 229.077 C 715.955 220.323, 731.450 212, 734.632 212 C 741.610 212, 746.648 224.638, 750.178 251 C 751.782 262.976, 751.734 307.854, 750.103 321.500 C 748.615 333.952, 745.508 352.327, 743.372 361.318 L 741.751 368.135 748.288 380.818 C 764.241 411.770, 771.474 438.839, 772.713 472.224 C 773.195 485.194, 773.052 488.023, 771.898 488.373 C 771.129 488.607, 759.700 489.999, 746.500 491.467 C 718.870 494.540, 716.198 495.096, 713.069 498.426 C 708.446 503.347, 709.351 513.771, 714.770 518.034 C 718.060 520.622, 723.929 520.549, 749.500 517.601 C 760.500 516.333, 769.684 515.450, 769.908 515.639 C 771.259 516.776, 762.425 548.585, 758.956 555.080 C 758.212 556.473, 755.881 556.085, 739.306 551.810 C 716.673 545.974, 711.348 545.808, 706.886 550.802 C 701.416 556.923, 702.332 566.286, 708.829 570.664 C 710.745 571.955, 718.453 574.369, 727.544 576.526 C 736.046 578.543, 743.226 580.556, 743.500 580.999 C 744.306 582.304, 735.249 593.754, 725.080 604.284 C 701.665 628.531, 671.004 646.451, 634.945 656.961 C 629.690 658.493, 623.917 660.509, 622.117 661.440 C 613.460 665.916, 614.487 680.368, 623.913 686.720 C 628.766 689.991, 633.767 689.632, 648.351 684.970 C 687.603 672.421, 721.952 652.067, 747.641 626.132 C 756.011 617.683, 767.566 603.217, 773.514 593.744 C 775.606 590.412, 776.949 589.180, 778 589.631 C 778.825 589.986, 785.350 592.271, 792.500 594.709 C 811.833 601.303, 818.263 600.817, 823.199 592.390 C 826.252 587.179, 826.472 581.961, 823.806 578.024 C 821.012 573.896, 817.169 572.240, 800.392 567.929 L 788.284 564.819 791.264 557.159 C 796.018 544.940, 799.003 534.405, 802.528 517.398 C 802.942 515.403, 803.783 515.262, 819.232 514.600 C 837.510 513.817, 841.722 513.017, 844.695 509.761 C 850.155 503.783, 850.096 495.365, 844.553 489.488 L 841.186 485.918 823.343 486.050 L 805.500 486.182 804.766 471.841 C 802.995 437.239, 795.786 408.301, 781.878 379.965 L 774.778 365.500 775.943 358 C 780.532 328.456, 781.144 321.640, 781.693 294 C 782.297 263.563, 781.414 248.835, 777.973 231.896 C 772.544 205.177, 763.016 188.397, 749.761 182.211 C 743.465 179.273, 733.266 179.215, 724.793 182.070 C 698.941 190.778, 662.566 215.943, 629.852 247.750 C 618.481 258.806, 613.509 263, 611.772 263 C 610.455 263, 602.430 261.029, 593.938 258.620 C 539.877 243.284, 479.207 243.791, 423.351 260.046 C 417.769 261.671, 411.975 263, 410.476 263 C 408.317 263, 404.575 259.909, 392.441 248.101 C 367.372 223.707, 340.656 203.628, 316 190.651 C 295.684 179.958, 282.861 177.523, 272.435 182.378 M 381.220 424.578 C 371.761 429.291, 367.044 437.251, 367.044 448.500 C 367.044 459.749, 371.761 467.709, 381.220 472.422 C 393.606 478.594, 408.339 473.785, 415.770 461.145 C 419.571 454.679, 419.684 443.819, 416.026 436.657 C 409.302 423.491, 394.033 418.193, 381.220 424.578 M 619.500 423.867 C 609.395 428.474, 603.647 437.218, 603.638 448 C 603.625 463.423, 614.708 475.014, 629.446 474.990 C 654.277 474.950, 665.217 444.568, 646.361 428.012 C 644.317 426.218, 641.165 424.131, 639.355 423.375 C 634.645 421.407, 624.336 421.663, 619.500 423.867 M 488 483.881 C 480.070 485.577, 475.995 490.382, 476.026 498 C 476.055 505.350, 479.214 510.631, 489.557 520.621 C 499.795 530.510, 500.160 531.342, 497.784 539.384 C 496.002 545.414, 487.869 553.219, 480.981 555.506 C 466.701 560.250, 453.886 555.451, 447.505 542.969 C 446.231 540.478, 444.134 537.908, 442.844 537.259 C 435.032 533.329, 426.414 537.492, 425.309 545.731 C 424.853 549.132, 425.306 551.076, 427.620 555.649 C 435.441 571.107, 449.995 580.338, 468.681 581.694 C 483.216 582.748, 496.481 578.559, 506.341 569.800 L 511.181 565.500 515.717 569.738 C 531.536 584.520, 559.787 585.971, 579.944 573.036 C 589.810 566.705, 597.970 554.775, 597.990 546.650 C 597.998 543.598, 597.296 542.096, 594.600 539.400 C 591.641 536.441, 590.552 536, 586.206 536 C 580.470 536, 577.436 538.324, 572.852 546.230 C 569.155 552.605, 562.873 556.133, 554.100 556.761 C 537.273 557.965, 523.985 547.665, 524.008 533.434 C 524.016 528.531, 524.068 528.452, 532.406 520.775 C 545.309 508.895, 549.087 498.931, 543.737 490.898 C 539.356 484.320, 536.129 483.538, 512.500 483.324 C 500.950 483.219, 489.925 483.470, 488 483.881" stroke="none" fill="#2c2b2b" fill-rule="evenodd"/></svg>